<svg width="225" height="60" viewBox="0 0 225 60" fill="none" xmlns="http://www.w3.org/2000/svg">
<ellipse cx="195.391" cy="30.0888" rx="29.6092" ry="28.9626" fill="black"/>
<path d="M29.0709 0C11.7252 0 0 13.4597 0 29.9526C0 46.4455 11.6283 59.9052 29.0709 59.9052C34.9819 59.9052 42.928 57.7251 47.3855 53.8389L42.7342 44.3602C39.6333 47.109 34.1098 49.0995 29.943 49.0995C18.6053 49.0995 11.7252 40.5687 11.7252 29.9526C11.7252 19.4313 18.7023 10.8057 29.943 10.8057C34.1098 10.8057 39.6333 12.7962 42.7342 15.545L47.3855 6.16114C43.0249 2.18009 34.9819 0 29.0709 0Z" fill="black"/>
<path d="M82.3879 60C96.245 60 104.772 50.5213 104.772 37.2512V1.04265H93.6286V37.2512C93.6286 43.6967 89.3649 49.3839 82.3879 49.3839C75.4109 49.3839 71.1471 43.7915 71.1471 37.2512V1.04265H60.0033V37.2512C60.0033 50.7109 68.337 60 82.3879 60Z" fill="black"/>
<path d="M134.576 11.3744V59.0521H146.011V11.3744H164.228V1.04265H116.358V11.3744H134.576Z" fill="black"/>
</svg>
